<?xml version="1.0" encoding="UTF-8"?>
<svg id="Layer_1" data-name="Layer 1" xmlns="http://www.w3.org/2000/svg" viewBox="0 0 408.82 98.38">
  <defs>
    <style>
      .cls-1 {
        fill: #0f4c81;
      }

      .cls-2 {
        fill: #f78c1f;
      }
    </style>
  </defs>
  <g>
    <path class="cls-2" d="M28.01,89.95c-10.81,0-19.57-8.76-19.57-19.57s8.76-19.57,19.57-19.57h3.29l4.46,8.44h-10.32c-3.56,0-8.56,4.99-8.56,11.13s5,11.13,11.13,11.13,11.13-5,11.13-11.13V20.14h-5.82L47.58,0v70.37c0,10.81-8.76,19.57-19.57,19.57Z"/>
    <path class="cls-1" d="M25.44,42.36h10.32l-4.46,8.44h-3.29c-10.81,0-19.57,8.76-19.57,19.57s8.76,19.57,19.57,19.57,19.57-8.76,19.57-19.57V0l14.26,20.14h-5.82v50.23c0,15.45-12.57,28.01-28.01,28.01S0,85.82,0,70.37s12.57-28.01,25.44-28.01Z"/>
  </g>
  <g>
    <path class="cls-1" d="M71.69,39.98c-2.99,0-5.38-.83-7.17-2.49-1.79-1.66-2.68-3.72-2.68-6.19s.89-4.53,2.68-6.18c1.79-1.66,4.18-2.49,7.17-2.49s5.38.78,7.17,2.34c1.79,1.56,2.68,3.57,2.68,6.03,0,2.61-.89,4.76-2.68,6.45-1.79,1.69-4.18,2.53-7.17,2.53ZM63.51,84.55v-41.26h16.37v41.26h-16.37Z"/>
    <path class="cls-1" d="M87.12,84.55v-41.26h15.57v12.44l-2.54-3.54c1.21-3.22,3.14-5.63,5.79-7.24,2.65-1.61,5.84-2.41,9.56-2.41v15.08c-.72-.1-1.36-.18-1.92-.23-.56-.05-1.12-.08-1.7-.08-2.46,0-4.48.67-6.05,2-1.57,1.33-2.35,3.63-2.35,6.9v18.33h-16.37Z"/>
    <path class="cls-1" d="M141.65,85.3c-4.83,0-9.04-.93-12.64-2.79-3.6-1.86-6.39-4.41-8.36-7.66-1.98-3.24-2.97-6.9-2.97-10.97s.98-7.87,2.93-11.09c1.96-3.22,4.64-5.73,8.04-7.54,3.4-1.81,7.23-2.72,11.48-2.72,3.91,0,7.52.8,10.83,2.41,3.31,1.61,5.96,4,7.97,7.17,2,3.17,3.01,7.09,3.01,11.77,0,.6-.02,1.27-.07,2-.05.73-.1,1.4-.14,2h-30.49v-8.22h21.8l-6.16,2.19c0-1.61-.28-2.98-.83-4.11-.56-1.13-1.32-2.01-2.28-2.64-.97-.63-2.12-.94-3.48-.94s-2.52.31-3.51.94c-.99.63-1.75,1.51-2.28,2.64-.53,1.13-.8,2.5-.8,4.11v2.56c0,1.76.34,3.27,1.01,4.53.68,1.26,1.64,2.2,2.9,2.83,1.25.63,2.78.94,4.56.94s3.34-.25,4.53-.75c1.18-.5,2.43-1.26,3.73-2.26l8.55,8.98c-1.93,2.16-4.31,3.81-7.13,4.94-2.82,1.13-6.22,1.7-10.18,1.7Z"/>
    <path class="cls-1" d="M188.37,85.3c-4.54,0-8.57-.9-12.09-2.71-3.52-1.81-6.29-4.34-8.29-7.58-2-3.24-3.01-6.95-3.01-11.12s1-7.87,3.01-11.09c2-3.22,4.77-5.73,8.29-7.54,3.52-1.81,7.56-2.72,12.09-2.72,4.83,0,8.96,1.08,12.38,3.24,3.43,2.16,5.79,5.16,7.1,8.98l-12.67,6.49c-.82-1.91-1.82-3.29-3.01-4.15-1.18-.85-2.47-1.28-3.87-1.28-1.21,0-2.33.3-3.37.91-1.04.6-1.86,1.5-2.46,2.68-.6,1.18-.91,2.68-.91,4.49s.3,3.32.91,4.53c.6,1.21,1.42,2.11,2.46,2.71,1.04.6,2.16.91,3.37.91,1.4,0,2.69-.43,3.87-1.28,1.18-.85,2.18-2.24,3.01-4.15l12.67,6.49c-1.3,3.82-3.67,6.81-7.1,8.97-3.43,2.16-7.56,3.24-12.38,3.24Z"/>
    <path class="cls-1" d="M211.62,84.55V28.59h16.37v26.78l-3.91-3.47c1.54-3.12,3.63-5.46,6.26-7.01,2.63-1.56,5.56-2.34,8.8-2.34,3.04,0,5.79.64,8.26,1.92,2.46,1.28,4.41,3.28,5.83,6,1.42,2.71,2.14,6.24,2.14,10.56v23.53h-16.37v-20.59c0-2.56-.43-4.39-1.3-5.47-.87-1.08-2.05-1.62-3.55-1.62-1.11,0-2.14.26-3.08.79-.94.53-1.69,1.39-2.25,2.6-.56,1.21-.83,2.84-.83,4.9v19.38h-16.37Z"/>
    <path class="cls-1" d="M284.11,85.3c-4.49,0-8.46-.92-11.91-2.75-3.45-1.83-6.17-4.36-8.15-7.58-1.98-3.22-2.97-6.91-2.97-11.09s.99-7.87,2.97-11.09c1.98-3.22,4.7-5.73,8.15-7.54,3.45-1.81,7.42-2.72,11.91-2.72s8.47.91,11.95,2.72c3.48,1.81,6.19,4.32,8.15,7.54,1.96,3.22,2.93,6.91,2.93,11.09s-.98,7.87-2.93,11.09c-1.96,3.22-4.67,5.75-8.15,7.58-3.48,1.84-7.46,2.75-11.95,2.75ZM284.11,72.03c1.21,0,2.29-.3,3.26-.91.97-.6,1.74-1.52,2.32-2.75.58-1.23.87-2.73.87-4.49s-.29-3.31-.87-4.49c-.58-1.18-1.35-2.07-2.32-2.68-.96-.6-2.05-.91-3.26-.91s-2.29.3-3.26.91c-.97.6-1.74,1.5-2.32,2.68-.58,1.18-.87,2.68-.87,4.49s.29,3.26.87,4.49c.58,1.23,1.35,2.15,2.32,2.75.96.6,2.05.91,3.26.91Z"/>
  </g>
  <path class="cls-2" d="M312.57,84.55c-1.06,0-1.97-.39-2.72-1.16-.75-.77-1.12-1.71-1.12-2.82s.37-2.1,1.12-2.82c.75-.72,1.65-1.09,2.72-1.09s1.97.36,2.72,1.09c.75.72,1.12,1.67,1.12,2.82s-.38,2.05-1.12,2.82c-.75.77-1.65,1.16-2.72,1.16Z"/>
  <g>
    <path class="cls-2" d="M323,98.24v-52.43h6.66v10.36l-.43,8.91.72,8.91v24.26h-6.95ZM343.35,84.62c-3.19,0-6.1-.74-8.73-2.21-2.63-1.47-4.73-3.66-6.3-6.55-1.57-2.9-2.35-6.52-2.35-10.86s.76-7.97,2.28-10.86c1.52-2.9,3.6-5.07,6.23-6.52s5.59-2.17,8.87-2.17c3.77,0,7.1.82,10,2.46,2.9,1.64,5.19,3.92,6.88,6.84,1.69,2.92,2.54,6.34,2.54,10.25s-.85,7.34-2.54,10.28c-1.69,2.95-3.98,5.24-6.88,6.88-2.9,1.64-6.23,2.46-10,2.46ZM342.77,78.54c2.46,0,4.67-.55,6.63-1.67,1.96-1.11,3.5-2.69,4.63-4.74,1.13-2.05,1.7-4.43,1.7-7.13s-.57-5.13-1.7-7.13c-1.13-2-2.68-3.56-4.63-4.67-1.96-1.11-4.16-1.67-6.63-1.67s-4.6.56-6.55,1.67c-1.96,1.11-3.5,2.67-4.63,4.67-1.13,2-1.7,4.38-1.7,7.13s.57,5.08,1.7,7.13c1.13,2.05,2.68,3.63,4.63,4.74,1.96,1.11,4.14,1.67,6.55,1.67Z"/>
    <path class="cls-2" d="M372.39,84.19V30.45h6.95v25.71l-1.38-2.75c1.25-2.51,3.19-4.47,5.79-5.87s5.65-2.1,9.13-2.1c3.14,0,5.9.6,8.29,1.81,2.39,1.21,4.26,3.04,5.61,5.5,1.35,2.46,2.03,5.58,2.03,9.34v22.09h-6.95v-21.29c0-3.72-.91-6.52-2.72-8.4s-4.36-2.82-7.64-2.82c-2.46,0-4.61.48-6.45,1.45-1.83.97-3.25,2.39-4.24,4.27-.99,1.88-1.49,4.23-1.49,7.03v19.77h-6.95Z"/>
  </g>
</svg>